<svg width="300" height="300" xmlns="http://www.w3.org/2000/svg" preserveAspectRatio="xMidYMid meet" version="1.0">
 <metadata>svgimages.com</metadata>

 <g>
  <title>Layer 1</title>
  <path fill="#ff0000" d="m12,12.5c-2.6,3.2 1.3,8.1 4.8,5.9c3.4,-2.2 2.2,-7.4 -1.8,-7.4c-1,0 -2.3,0.7 -3,1.5z" id="node1" class="node"/>
  <path fill="#ff0000" d="m42,12.5c-2.6,3.2 1.3,8.1 4.8,5.9c3.4,-2.2 2.2,-7.4 -1.8,-7.4c-1,0 -2.3,0.7 -3,1.5z" id="node2" class="node"/>
  <path fill="#ff0000" d="m72,12.5c-2.6,3.2 1.3,8.1 4.8,5.9c3.4,-2.2 2.2,-7.4 -1.8,-7.4c-1,0 -2.3,0.7 -3,1.5z" id="node3" class="node"/>
  <path fill="#ff0000" d="m102,12.5c-2.6,3.2 1.3,8.1 4.8,5.9c3.4,-2.2 2.2,-7.4 -1.8,-7.4c-1,0 -2.3,0.7 -3,1.5z" id="node4" class="node"/>
  <path fill="#ff0000" d="m132,12.5c-2.6,3.2 1.3,8.1 4.8,5.9c3.4,-2.2 2.2,-7.4 -1.8,-7.4c-1,0 -2.3,0.7 -3,1.5z" id="node5" class="node"/>
  <path fill="#ff0000" d="m162,12.5c-2.6,3.2 1.3,8.1 4.8,5.9c3.4,-2.2 2.2,-7.4 -1.8,-7.4c-1,0 -2.3,0.7 -3,1.5z" id="node6" class="node"/>
  <path fill="#ff0000" d="m192,12.5c-2.6,3.2 1.3,8.1 4.8,5.9c3.4,-2.2 2.2,-7.4 -1.8,-7.4c-1,0 -2.3,0.7 -3,1.5z" id="node7" class="node"/>
  <path fill="#ff0000" d="m222,12.5c-2.6,3.2 1.3,8.1 4.8,5.9c3.4,-2.2 2.2,-7.4 -1.8,-7.4c-1,0 -2.3,0.7 -3,1.5z" id="node8" class="node"/>
  <path fill="#ff0000" d="m252,12.5c-2.6,3.2 1.3,8.1 4.8,5.9c3.4,-2.2 2.2,-7.4 -1.8,-7.4c-1,0 -2.3,0.7 -3,1.5z" id="node9" class="node"/>
  <path fill="#ff0000" d="m282,12.5c-2.6,3.2 1.3,8.1 4.8,5.9c3.4,-2.2 2.2,-7.4 -1.8,-7.4c-1,0 -2.3,0.7 -3,1.5z" id="node10" class="node"/>
  <path fill="#ff0000" d="m12,42.5c-2.6,3.2 1.3,8.1 4.8,5.9c3.4,-2.2 2.2,-7.4 -1.8,-7.4c-1,0 -2.3,0.7 -3,1.5z" id="node11" class="node"/>
  <path fill="#ff0000" d="m42,42.5c-2.6,3.2 1.3,8.1 4.8,5.9c3.4,-2.2 2.2,-7.4 -1.8,-7.4c-1,0 -2.3,0.7 -3,1.5z" id="node12" class="node"/>
  <path fill="#ff0000" d="m72,42.5c-2.6,3.2 1.3,8.1 4.8,5.9c3.4,-2.2 2.2,-7.4 -1.8,-7.4c-1,0 -2.3,0.7 -3,1.5z" id="node13" class="node"/>
  <path fill="#ff0000" d="m102,42.5c-2.6,3.2 1.3,8.1 4.8,5.9c3.4,-2.2 2.2,-7.4 -1.8,-7.4c-1,0 -2.3,0.7 -3,1.5z" id="node14" class="node"/>
  <path fill="#ff0000" d="m132,42.5c-2.6,3.2 1.3,8.1 4.8,5.9c3.4,-2.2 2.2,-7.4 -1.8,-7.4c-1,0 -2.3,0.7 -3,1.5z" id="node15" class="node"/>
  <path fill="#ff0000" d="m162,42.5c-2.6,3.2 1.3,8.1 4.8,5.9c3.4,-2.2 2.2,-7.4 -1.8,-7.4c-1,0 -2.3,0.7 -3,1.5z" id="node16" class="node"/>
  <path fill="#ff0000" d="m192,42.5c-2.6,3.2 1.3,8.1 4.8,5.9c3.4,-2.2 2.2,-7.4 -1.8,-7.4c-1,0 -2.3,0.7 -3,1.5z" id="node17" class="node"/>
  <path fill="#ff0000" d="m222,42.5c-2.6,3.2 1.3,8.1 4.8,5.9c3.4,-2.2 2.2,-7.4 -1.8,-7.4c-1,0 -2.3,0.7 -3,1.5z" id="node18" class="node"/>
  <path fill="#ff0000" d="m252,42.5c-2.6,3.2 1.3,8.1 4.8,5.9c3.4,-2.2 2.2,-7.4 -1.8,-7.4c-1,0 -2.3,0.7 -3,1.5z" id="node19" class="node"/>
  <path fill="#ff0000" d="m282,42.5c-2.6,3.2 1.3,8.1 4.8,5.9c3.4,-2.2 2.2,-7.4 -1.8,-7.4c-1,0 -2.3,0.7 -3,1.5z" id="node20" class="node"/>
  <path fill="#ff0000" d="m12,72.5c-2.6,3.2 1.3,8.1 4.8,5.9c3.4,-2.2 2.2,-7.4 -1.8,-7.4c-1,0 -2.3,0.7 -3,1.5z" id="node21" class="node"/>
  <path fill="#ff0000" d="m42,72.5c-2.6,3.2 1.3,8.1 4.8,5.9c3.4,-2.2 2.2,-7.4 -1.8,-7.4c-1,0 -2.3,0.7 -3,1.5z" id="node22" class="node"/>
  <path fill="#ff0000" d="m72,72.5c-2.6,3.2 1.3,8.1 4.8,5.9c3.4,-2.2 2.2,-7.4 -1.8,-7.4c-1,0 -2.3,0.7 -3,1.5z" id="node23" class="node"/>
  <path fill="#ff0000" d="m102,72.5c-2.6,3.2 1.3,8.1 4.8,5.9c3.4,-2.2 2.2,-7.4 -1.8,-7.4c-1,0 -2.3,0.7 -3,1.5z" id="node24" class="node"/>
  <path fill="#ff0000" d="m132,72.5c-2.6,3.2 1.3,8.1 4.8,5.9c3.4,-2.2 2.2,-7.4 -1.8,-7.4c-1,0 -2.3,0.7 -3,1.5z" id="node25" class="node"/>
  <path fill="#ff0000" d="m162,72.5c-2.6,3.2 1.3,8.1 4.8,5.9c3.4,-2.2 2.2,-7.4 -1.8,-7.4c-1,0 -2.3,0.7 -3,1.5z" id="node26" class="node"/>
  <path fill="#ff0000" d="m192,72.5c-2.6,3.2 1.3,8.1 4.8,5.9c3.4,-2.2 2.2,-7.4 -1.8,-7.4c-1,0 -2.3,0.7 -3,1.5z" id="node27" class="node"/>
  <path fill="#ff0000" d="m222,72.5c-2.6,3.2 1.3,8.1 4.8,5.9c3.4,-2.2 2.2,-7.4 -1.8,-7.4c-1,0 -2.3,0.7 -3,1.5z" id="node28" class="node"/>
  <path fill="#ff0000" d="m252,72.5c-2.6,3.2 1.3,8.1 4.8,5.9c3.4,-2.2 2.2,-7.4 -1.8,-7.4c-1,0 -2.3,0.7 -3,1.5z" id="node29" class="node"/>
  <path fill="#ff0000" d="m282,72.5c-2.6,3.2 1.3,8.1 4.8,5.9c3.4,-2.2 2.2,-7.4 -1.8,-7.4c-1,0 -2.3,0.7 -3,1.5z" id="node30" class="node"/>
  <path fill="#ff0000" d="m12,102.5c-2.6,3.2 1.3,8.1 4.8,5.9c3.4,-2.2 2.2,-7.4 -1.8,-7.4c-1,0 -2.3,0.7 -3,1.5z" id="node31" class="node"/>
  <path fill="#ff0000" d="m42,102.5c-2.6,3.2 1.3,8.1 4.8,5.9c3.4,-2.2 2.2,-7.4 -1.8,-7.4c-1,0 -2.3,0.7 -3,1.5z" id="node32" class="node"/>
  <path fill="#ff0000" d="m72,102.5c-2.6,3.2 1.3,8.1 4.8,5.9c3.4,-2.2 2.2,-7.4 -1.8,-7.4c-1,0 -2.3,0.7 -3,1.5z" id="node33" class="node"/>
  <path fill="#ff0000" d="m102,102.5c-2.6,3.2 1.3,8.1 4.8,5.9c3.4,-2.2 2.2,-7.4 -1.8,-7.4c-1,0 -2.3,0.7 -3,1.5z" id="node34" class="node"/>
  <path fill="#ff0000" d="m132,102.5c-2.6,3.2 1.3,8.1 4.8,5.9c3.4,-2.2 2.2,-7.4 -1.8,-7.4c-1,0 -2.3,0.7 -3,1.5z" id="node35" class="node"/>
  <path fill="#ff0000" d="m162,102.5c-2.6,3.2 1.3,8.1 4.8,5.9c3.4,-2.2 2.2,-7.4 -1.8,-7.4c-1,0 -2.3,0.7 -3,1.5z" id="node36" class="node"/>
  <path fill="#ff0000" d="m192,102.5c-2.6,3.2 1.3,8.1 4.8,5.9c3.4,-2.2 2.2,-7.4 -1.8,-7.4c-1,0 -2.3,0.7 -3,1.5z" id="node37" class="node"/>
  <path fill="#ff0000" d="m222,102.5c-2.6,3.2 1.3,8.1 4.8,5.9c3.4,-2.2 2.2,-7.4 -1.8,-7.4c-1,0 -2.3,0.7 -3,1.5z" id="node38" class="node"/>
  <path fill="#ff0000" d="m252,102.5c-2.6,3.2 1.3,8.1 4.8,5.9c3.4,-2.2 2.2,-7.4 -1.8,-7.4c-1,0 -2.3,0.7 -3,1.5z" id="node39" class="node"/>
  <path fill="#ff0000" d="m282,102.5c-2.6,3.2 1.3,8.1 4.8,5.9c3.4,-2.2 2.2,-7.4 -1.8,-7.4c-1,0 -2.3,0.7 -3,1.5z" id="node40" class="node"/>
  <path fill="#ff0000" d="m12,132.5c-2.6,3.2 1.3,8.1 4.8,5.9c3.4,-2.2 2.2,-7.4 -1.8,-7.4c-1,0 -2.3,0.7 -3,1.5z" id="node41" class="node"/>
  <path fill="#ff0000" d="m42,132.5c-2.6,3.2 1.3,8.1 4.8,5.9c3.4,-2.2 2.2,-7.4 -1.8,-7.4c-1,0 -2.3,0.7 -3,1.5z" id="node42" class="node"/>
  <path fill="#ff0000" d="m72,132.5c-2.6,3.2 1.3,8.1 4.8,5.9c3.4,-2.2 2.2,-7.4 -1.8,-7.4c-1,0 -2.3,0.7 -3,1.5z" id="node43" class="node"/>
  <path fill="#ff0000" d="m102,132.5c-2.6,3.2 1.3,8.1 4.8,5.9c3.4,-2.2 2.2,-7.4 -1.8,-7.4c-1,0 -2.3,0.7 -3,1.5z" id="node44" class="node"/>
  <path fill="#ff0000" d="m132,132.5c-2.6,3.2 1.3,8.1 4.8,5.9c3.4,-2.2 2.2,-7.4 -1.8,-7.4c-1,0 -2.3,0.7 -3,1.5z" id="node45" class="node"/>
  <path fill="#ff0000" d="m162,132.5c-2.6,3.2 1.3,8.1 4.8,5.9c3.4,-2.2 2.2,-7.4 -1.8,-7.4c-1,0 -2.3,0.7 -3,1.5z" id="node46" class="node"/>
  <path fill="#ff0000" d="m192,132.5c-2.6,3.2 1.3,8.1 4.8,5.9c3.4,-2.2 2.2,-7.4 -1.8,-7.4c-1,0 -2.3,0.7 -3,1.5z" id="node47" class="node"/>
  <path fill="#ff0000" d="m222,132.5c-2.6,3.2 1.3,8.1 4.8,5.9c3.4,-2.2 2.2,-7.4 -1.8,-7.4c-1,0 -2.3,0.7 -3,1.5z" id="node48" class="node"/>
  <path fill="#ff0000" d="m252,132.5c-2.6,3.2 1.3,8.1 4.8,5.9c3.4,-2.2 2.2,-7.4 -1.8,-7.4c-1,0 -2.3,0.7 -3,1.5z" id="node49" class="node"/>
  <path fill="#ff0000" d="m282,132.5c-2.6,3.2 1.3,8.1 4.8,5.9c3.4,-2.2 2.2,-7.4 -1.8,-7.4c-1,0 -2.3,0.7 -3,1.5z" id="node50" class="node"/>
  <path fill="#ff0000" d="m12,162.5c-2.6,3.2 1.3,8.1 4.8,5.9c3.4,-2.2 2.2,-7.4 -1.8,-7.4c-1,0 -2.3,0.7 -3,1.5z" id="node51" class="node"/>
  <path fill="#ff0000" d="m42,162.5c-2.6,3.2 1.3,8.1 4.8,5.9c3.4,-2.2 2.2,-7.4 -1.8,-7.4c-1,0 -2.3,0.7 -3,1.5z" id="node52" class="node"/>
  <path fill="#ff0000" d="m72,162.5c-2.6,3.2 1.3,8.1 4.8,5.9c3.4,-2.2 2.2,-7.4 -1.8,-7.4c-1,0 -2.3,0.7 -3,1.5z" id="node53" class="node"/>
  <path fill="#ff0000" d="m102,162.5c-2.6,3.2 1.3,8.1 4.8,5.9c3.4,-2.2 2.2,-7.4 -1.8,-7.4c-1,0 -2.3,0.7 -3,1.5z" id="node54" class="node"/>
  <path fill="#ff0000" d="m132,162.5c-2.6,3.2 1.3,8.1 4.8,5.9c3.4,-2.2 2.2,-7.4 -1.8,-7.4c-1,0 -2.3,0.7 -3,1.5z" id="node55" class="node"/>
  <path fill="#ff0000" d="m162,162.5c-2.6,3.2 1.3,8.1 4.8,5.9c3.4,-2.2 2.2,-7.4 -1.8,-7.4c-1,0 -2.3,0.7 -3,1.5z" id="node56" class="node"/>
  <path fill="#ff0000" d="m192,162.5c-2.6,3.2 1.3,8.1 4.8,5.9c3.4,-2.2 2.2,-7.4 -1.8,-7.4c-1,0 -2.3,0.7 -3,1.5z" id="node57" class="node"/>
  <path fill="#ff0000" d="m222,162.5c-2.6,3.2 1.3,8.1 4.8,5.9c3.4,-2.2 2.2,-7.4 -1.8,-7.4c-1,0 -2.3,0.7 -3,1.5z" id="node58" class="node"/>
  <path fill="#ff0000" d="m252,162.5c-2.6,3.2 1.3,8.1 4.8,5.9c3.4,-2.2 2.2,-7.4 -1.8,-7.4c-1,0 -2.3,0.7 -3,1.5z" id="node59" class="node"/>
  <path fill="#ff0000" d="m282,162.5c-2.6,3.2 1.3,8.1 4.8,5.9c3.4,-2.2 2.2,-7.4 -1.8,-7.4c-1,0 -2.3,0.7 -3,1.5z" id="node60" class="node"/>
  <path fill="#ff0000" d="m12,192.5c-2.6,3.2 1.3,8.1 4.8,5.9c3.4,-2.2 2.2,-7.4 -1.8,-7.4c-1,0 -2.3,0.7 -3,1.5z" id="node61" class="node"/>
  <path fill="#ff0000" d="m42,192.5c-2.6,3.2 1.3,8.1 4.8,5.9c3.4,-2.2 2.2,-7.4 -1.8,-7.4c-1,0 -2.3,0.7 -3,1.5z" id="node62" class="node"/>
  <path fill="#ff0000" d="m72,192.5c-2.6,3.2 1.3,8.1 4.8,5.9c3.4,-2.2 2.2,-7.4 -1.8,-7.4c-1,0 -2.3,0.7 -3,1.5z" id="node63" class="node"/>
  <path fill="#ff0000" d="m102,192.5c-2.6,3.2 1.3,8.1 4.8,5.9c3.4,-2.2 2.2,-7.4 -1.8,-7.4c-1,0 -2.3,0.7 -3,1.5z" id="node64" class="node"/>
  <path fill="#ff0000" d="m132,192.5c-2.6,3.2 1.3,8.1 4.8,5.9c3.4,-2.2 2.2,-7.4 -1.8,-7.4c-1,0 -2.3,0.7 -3,1.5z" id="node65" class="node"/>
  <path fill="#ff0000" d="m162,192.5c-2.6,3.2 1.3,8.1 4.8,5.9c3.4,-2.2 2.2,-7.4 -1.8,-7.4c-1,0 -2.3,0.7 -3,1.5z" id="node66" class="node"/>
  <path fill="#ff0000" d="m192,192.5c-2.6,3.2 1.3,8.1 4.8,5.9c3.4,-2.2 2.2,-7.4 -1.8,-7.4c-1,0 -2.3,0.7 -3,1.5z" id="node67" class="node"/>
  <path fill="#ff0000" d="m222,192.5c-2.6,3.2 1.3,8.1 4.8,5.9c3.4,-2.2 2.2,-7.4 -1.8,-7.4c-1,0 -2.3,0.7 -3,1.5z" id="node68" class="node"/>
  <path fill="#ff0000" d="m252,192.5c-2.6,3.2 1.3,8.1 4.8,5.9c3.4,-2.2 2.2,-7.4 -1.8,-7.4c-1,0 -2.3,0.7 -3,1.5z" id="node69" class="node"/>
  <path fill="#ff0000" d="m282,192.5c-2.6,3.2 1.3,8.1 4.8,5.9c3.4,-2.2 2.2,-7.4 -1.8,-7.4c-1,0 -2.3,0.7 -3,1.5z" id="node70" class="node"/>
  <path fill="#ff0000" d="m12,222.5c-2.6,3.2 1.3,8.1 4.8,5.9c3.4,-2.2 2.2,-7.4 -1.8,-7.4c-1,0 -2.3,0.7 -3,1.5z" id="node71" class="node"/>
  <path fill="#ff0000" d="m42,222.5c-2.6,3.2 1.3,8.1 4.8,5.9c3.4,-2.2 2.2,-7.4 -1.8,-7.4c-1,0 -2.3,0.7 -3,1.5z" id="node72" class="node"/>
  <path fill="#ff0000" d="m72,222.5c-2.6,3.2 1.3,8.1 4.8,5.9c3.4,-2.2 2.2,-7.4 -1.8,-7.4c-1,0 -2.3,0.7 -3,1.5z" id="node73" class="node"/>
  <path fill="#ff0000" d="m102,222.5c-2.6,3.2 1.3,8.1 4.8,5.9c3.4,-2.2 2.2,-7.4 -1.8,-7.4c-1,0 -2.3,0.7 -3,1.5z" id="node74" class="node"/>
  <path fill="#ff0000" d="m132,222.5c-2.6,3.2 1.3,8.1 4.8,5.9c3.4,-2.2 2.2,-7.4 -1.8,-7.4c-1,0 -2.3,0.7 -3,1.5z" id="node75" class="node"/>
  <path fill="#ff0000" d="m162,222.5c-2.6,3.2 1.3,8.1 4.8,5.9c3.4,-2.2 2.2,-7.4 -1.8,-7.4c-1,0 -2.3,0.7 -3,1.5z" id="node76" class="node"/>
  <path fill="#ff0000" d="m192,222.5c-2.6,3.2 1.3,8.1 4.8,5.9c3.4,-2.2 2.2,-7.4 -1.8,-7.4c-1,0 -2.3,0.7 -3,1.5z" id="node77" class="node"/>
  <path fill="#ff0000" d="m222,222.5c-2.6,3.2 1.3,8.1 4.8,5.9c3.4,-2.2 2.2,-7.4 -1.8,-7.4c-1,0 -2.3,0.7 -3,1.5z" id="node78" class="node"/>
  <path fill="#ff0000" d="m252,222.5c-2.6,3.2 1.3,8.1 4.8,5.9c3.4,-2.2 2.2,-7.4 -1.8,-7.4c-1,0 -2.3,0.7 -3,1.5z" id="node79" class="node"/>
  <path fill="#ff0000" d="m282,222.5c-2.6,3.2 1.3,8.1 4.8,5.9c3.4,-2.2 2.2,-7.4 -1.8,-7.4c-1,0 -2.3,0.7 -3,1.5z" id="node80" class="node"/>
  <path fill="#ff0000" d="m12,252.5c-2.6,3.2 1.3,8.1 4.8,5.9c2.2,-1.4 2.7,-4.1 1.2,-5.9c-1.6,-1.9 -4.4,-1.9 -6,0z" id="node81" class="node"/>
  <path fill="#ff0000" d="m42,252.5c-2.6,3.2 1.3,8.1 4.8,5.9c2.2,-1.4 2.7,-4.1 1.2,-5.9c-1.6,-1.9 -4.4,-1.9 -6,0z" id="node82" class="node"/>
  <path fill="#ff0000" d="m72,252.5c-2.6,3.2 1.3,8.1 4.8,5.9c2.2,-1.4 2.7,-4.1 1.2,-5.9c-1.6,-1.9 -4.4,-1.9 -6,0z" id="node83" class="node"/>
  <path fill="#ff0000" d="m102,252.5c-1.5,1.8 -1,4.5 1.3,5.9c3.4,2.2 7.3,-2.7 4.7,-5.9c-1.6,-1.9 -4.4,-1.9 -6,0z" id="node84" class="node"/>
  <path fill="#ff0000" d="m132,252.5c-2.6,3.2 1.3,8.1 4.8,5.9c2.2,-1.4 2.7,-4.1 1.2,-5.9c-1.6,-1.9 -4.4,-1.9 -6,0z" id="node85" class="node"/>
  <path fill="#ff0000" d="m162,252.5c-1.5,1.8 -1,4.5 1.3,5.9c3.4,2.2 7.3,-2.7 4.7,-5.9c-1.6,-1.9 -4.4,-1.9 -6,0z" id="node86" class="node"/>
  <path fill="#ff0000" d="m192,252.5c-2.6,3.2 1.3,8.1 4.8,5.9c2.2,-1.4 2.7,-4.1 1.2,-5.9c-1.6,-1.9 -4.4,-1.9 -6,0z" id="node87" class="node"/>
  <path fill="#ff0000" d="m222,252.5c-2.6,3.2 1.3,8.1 4.8,5.9c2.2,-1.4 2.7,-4.1 1.2,-5.9c-1.6,-1.9 -4.4,-1.9 -6,0z" id="node88" class="node"/>
  <path fill="#ff0000" d="m252,252.5c-2.6,3.2 1.3,8.1 4.8,5.9c2.2,-1.4 2.7,-4.1 1.2,-5.9c-1.6,-1.9 -4.4,-1.9 -6,0z" id="node89" class="node"/>
  <path fill="#ff0000" d="m282,252.5c-1.5,1.8 -1,4.5 1.3,5.9c3.4,2.2 7.3,-2.7 4.7,-5.9c-1.6,-1.9 -4.4,-1.9 -6,0z" id="node90" class="node"/>
  <path fill="#ff0000" d="m12,282.5c-1.5,1.8 -1,4.5 1.3,5.9c3.4,2.2 7.3,-2.7 4.7,-5.9c-1.6,-1.9 -4.4,-1.9 -6,0z" id="node91" class="node"/>
  <path fill="#ff0000" d="m42,282.5c-1.5,1.8 -1,4.5 1.3,5.9c3.4,2.2 7.3,-2.7 4.7,-5.9c-1.6,-1.9 -4.4,-1.9 -6,0z" id="node92" class="node"/>
  <path fill="#ff0000" d="m72,282.5c-1.5,1.8 -1,4.5 1.3,5.9c3.4,2.2 7.3,-2.7 4.7,-5.9c-1.6,-1.9 -4.4,-1.9 -6,0z" id="node93" class="node"/>
  <path fill="#ff0000" d="m102,282.5c-1.5,1.8 -1,4.5 1.3,5.9c3.4,2.2 7.3,-2.7 4.7,-5.9c-1.6,-1.9 -4.4,-1.9 -6,0z" id="node94" class="node"/>
  <path fill="#ff0000" d="m132,282.5c-2.6,3.2 1.3,8.1 4.8,5.9c2.2,-1.4 2.7,-4.1 1.2,-5.9c-1.6,-1.9 -4.4,-1.9 -6,0z" id="node95" class="node"/>
  <path fill="#ff0000" d="m162,282.5c-2.6,3.2 1.3,8.1 4.8,5.9c2.2,-1.4 2.7,-4.1 1.2,-5.9c-1.6,-1.9 -4.4,-1.9 -6,0z" id="node96" class="node"/>
  <path fill="#ff0000" d="m192,282.5c-1.5,1.8 -1,4.5 1.3,5.9c3.4,2.2 7.3,-2.7 4.7,-5.9c-1.6,-1.9 -4.4,-1.9 -6,0z" id="node97" class="node"/>
  <path fill="#ff0000" d="m222,282.5c-2.6,3.2 1.3,8.1 4.8,5.9c2.2,-1.4 2.7,-4.1 1.2,-5.9c-1.6,-1.9 -4.4,-1.9 -6,0z" id="node98" class="node"/>
  <path fill="#ff0000" d="m252,282.5c-2.6,3.2 1.3,8.1 4.8,5.9c0.9,-0.6 1.8,-1.9 2,-2.8c0.8,-3.8 -4.3,-6.1 -6.8,-3.1z" id="node99" class="node"/>
  <path fill="#ff0000" d="m282,282.5c-1.5,1.8 -1,4.5 1.3,5.9c3.4,2.2 7.3,-2.7 4.7,-5.9c-1.6,-1.9 -4.4,-1.9 -6,0z" id="node100" class="node"/>
  <g id="svg_2" fill="#A2A2A2" transform="translate(0.000000,300.000000) scale(0.100000,-0.100000)"/>
 </g>
</svg>